<svg width="31" height="30" fill="none" xmlns="http://www.w3.org/2000/svg"><path fill-rule="evenodd" clip-rule="evenodd" d="M5.5 7.778a2.5 2.5 0 0 0-1.25 2.165v10.114a2.5 2.5 0 0 0 1.25 2.165l8.75 5.055a2.5 2.5 0 0 0 2.5 0l8.75-5.055a2.5 2.5 0 0 0 1.25-2.165V9.943a2.5 2.5 0 0 0-1.25-2.165l-8.75-5.055a2.5 2.5 0 0 0-2.5 0L5.5 7.778Zm10.313-3.432 8.126 4.695-3.283 1.897L12.22 6.06l2.967-1.714a.625.625 0 0 1 .626 0Zm-5.467 2.797 8.437 4.878-3.283 1.896-8.44-4.876 3.286-1.898Zm-4.221 3.523 8.438 4.875v9.752l-8.126-4.695a.625.625 0 0 1-.312-.54v-9.392Zm18.438 9.932-8.125 4.695V15.54l8.437-4.875v9.391c0 .223-.119.43-.312.541Z" fill="#2A179C"/></svg>