<svg width="31" height="30" fill="none" xmlns="http://www.w3.org/2000/svg"><path fill-rule="evenodd" clip-rule="evenodd" d="M20.5 3.75c-.69 0-1.25.56-1.25 1.25v5c0 .69.56 1.25 1.25 1.25h5c.69 0 1.25-.56 1.25-1.25V5c0-.69-.56-1.25-1.25-1.25h-5Zm.625 5.625v-3.75h3.75v3.75h-3.75Z" fill="#2A179C"/><path d="M25.813 15.938a.937.937 0 1 0 0-1.876h-5.625a.937.937 0 1 0 0 1.876h5.625ZM24.875 25c0-.345.28-.625.625-.625h.625c.345 0 .625.28.625.625v.625c0 .345-.28.625-.625.625H25.5a.625.625 0 0 1-.625-.625V25ZM23 23.125c0-.345.28-.625.625-.625h.625c.345 0 .625.28.625.625v.625c0 .345-.28.625-.625.625h-.625A.625.625 0 0 1 23 23.75v-.625Z" fill="#2A179C"/><path d="M19.25 19.688c0-.518.42-.938.938-.938h5.937c.345 0 .625.28.625.625V20c0 .345-.28.625-.625.625h-5v5c0 .345-.28.625-.625.625h-.625a.625.625 0 0 1-.625-.625v-5.938ZM15.5 26.25a.937.937 0 0 1-.938-.938v-5.625a.937.937 0 1 1 1.876 0v5.625c0 .518-.42.938-.938.938Z" fill="#2A179C"/><path fill-rule="evenodd" clip-rule="evenodd" d="M5.5 18.75c-.69 0-1.25.56-1.25 1.25v5c0 .69.56 1.25 1.25 1.25h5c.69 0 1.25-.56 1.25-1.25v-5c0-.69-.56-1.25-1.25-1.25h-5Zm.625 5.625v-3.75h3.75v3.75h-3.75Z" fill="#2A179C"/><path d="M8.938 9.063c0-.346.28-.626.624-.626h1.876c.345 0 .624.28.624.626v1.874c0 .346-.28.626-.624.626H9.562a.625.625 0 0 1-.624-.626V9.063Z" fill="#2A179C"/><path fill-rule="evenodd" clip-rule="evenodd" d="M5.5 3.75c-.69 0-1.25.56-1.25 1.25v10c0 .69.56 1.25 1.25 1.25h10c.69 0 1.25-.56 1.25-1.25V5c0-.69-.56-1.25-1.25-1.25h-10Zm.625 10.625v-8.75h8.75v8.75h-8.75Z" fill="#2A179C"/></svg>