<svg width="31" height="30" fill="none" xmlns="http://www.w3.org/2000/svg"><path fill-rule="evenodd" clip-rule="evenodd" d="M19.693 5.015 18.625 10H25.5a3.75 3.75 0 0 1 3.75 3.75v3.82c0 .776-.18 1.541-.528 2.236l-2.186 4.371a3.75 3.75 0 0 1-3.354 2.073H5.5a2.5 2.5 0 0 1-2.5-2.5v-10a2.5 2.5 0 0 1 2.5-2.5h3.75l5.64-9.025a2.075 2.075 0 0 1 1.76-.975 3.112 3.112 0 0 1 3.043 3.765ZM9.25 13.125H5.5a.625.625 0 0 0-.625.625v10c0 .345.28.625.625.625h3.75v-11.25Zm15.61 10.213a1.875 1.875 0 0 1-1.678 1.037H11.125V11.788l5.355-8.569a.2.2 0 0 1 .17-.094c.788 0 1.375.726 1.21 1.497l-1.068 4.985a1.875 1.875 0 0 0 1.833 2.268H25.5c1.035 0 1.875.84 1.875 1.875v3.82c0 .485-.113.963-.33 1.397L24.86 23.34Z" fill="#2A179C"/></svg>