<svg width="22" height="22" fill="none" xmlns="http://www.w3.org/2000/svg"><path fill-rule="evenodd" clip-rule="evenodd" d="M18.583 3.281C16.553 1.251 13.843.167 11 .167 5.042.167.167 5.042.167 11c0 1.896.541 3.792 1.49 5.417l-1.49 5.416 5.687-1.49c1.625.813 3.386 1.355 5.146 1.355 5.958 0 10.833-4.875 10.833-10.833 0-2.844-1.218-5.552-3.25-7.584ZM11 19.938c-1.625 0-3.25-.407-4.604-1.22l-.271-.135-3.385.948.948-3.25-.271-.406c-.948-1.49-1.355-3.114-1.355-4.74 0-4.874 4.063-8.937 8.938-8.937 2.438 0 4.604.948 6.365 2.573 1.76 1.76 2.573 3.927 2.573 6.365 0 4.74-3.928 8.802-8.938 8.802Zm4.875-6.771c-.27-.136-1.625-.813-1.896-.813-.27-.135-.406-.135-.541.136-.136.27-.678.812-.813 1.083-.135.135-.27.135-.542.135-.27-.135-1.083-.406-2.166-1.354-.813-.677-1.354-1.625-1.49-1.896-.135-.27 0-.406.136-.541l.406-.406c.135-.136.135-.271.27-.407.136-.135 0-.27 0-.406 0-.135-.541-1.49-.812-2.031-.135-.406-.406-.406-.542-.406h-.541c-.136 0-.407 0-.677.27-.271.271-.948.948-.948 2.302 0 1.355.948 2.573 1.083 2.844.135.136 1.896 2.98 4.604 4.063 2.302.948 2.709.677 3.25.677.542 0 1.625-.677 1.76-1.219.271-.677.271-1.219.136-1.219-.135-.677-.406-.677-.677-.812Z" fill="#fff"/></svg>