<svg width="24" height="24" fill="none" xmlns="http://www.w3.org/2000/svg"><g clip-path="url(#a)"><path d="M14.25 14.25c-1.833 1.892-1.967 4.25-2.125 9.417 4.817 0 8.142-.017 9.858-1.684 1.667-1.716 1.684-5.2 1.684-9.858-5.167.167-7.525.292-9.417 2.125ZM.333 12.125c0 4.658.017 8.142 1.684 9.858 1.716 1.667 5.041 1.684 9.858 1.684-.167-5.167-.292-7.525-2.125-9.417-1.892-1.833-4.25-1.967-9.417-2.125ZM11.875.333c-4.808 0-8.142.017-9.858 1.684C.35 3.733.333 7.217.333 11.875c5.167-.167 7.525-.292 9.417-2.125 1.833-1.892 1.967-4.25 2.125-9.417ZM14.25 9.75C12.417 7.858 12.283 5.5 12.125.333c4.817 0 8.142.017 9.858 1.684 1.667 1.716 1.684 5.2 1.684 9.858-5.167-.167-7.525-.292-9.417-2.125Z" fill="#fff"/></g><defs><clipPath id="a"><path fill="#fff" transform="translate(.333 .333)" d="M0 0h23.333v23.333H0z"/></clipPath></defs></svg>