<svg width="24" height="24" fill="none" xmlns="http://www.w3.org/2000/svg"><path fill-rule="evenodd" clip-rule="evenodd" d="M12 22c5.523 0 10-4.477 10-10S17.523 2 12 2 2 6.477 2 12s4.477 10 10 10Zm8.5-10a8.51 8.51 0 0 1-.301 2.25h-3.813a22.128 22.128 0 0 0 0-4.5h3.813A8.51 8.51 0 0 1 20.5 12Zm-4.327-3.75h3.457a8.525 8.525 0 0 0-4.977-4.328c.672 1.092 1.203 2.589 1.52 4.328ZM9.347 3.922A8.525 8.525 0 0 0 4.37 8.25h3.457c.317-1.74.848-3.236 1.52-4.328ZM7.614 9.75H3.801A8.51 8.51 0 0 0 3.5 12c0 .779.105 1.533.301 2.25h3.813A21.9 21.9 0 0 1 7.5 12c0-.774.04-1.527.114-2.25Zm.213 6H4.37a8.525 8.525 0 0 0 4.977 4.328c-.672-1.092-1.203-2.589-1.52-4.328Zm6.826 4.328a8.525 8.525 0 0 0 4.977-4.328h-3.457c-.317 1.74-.848 3.236-1.52 4.328ZM15 12c0 .782-.043 1.536-.123 2.25H9.123A20.31 20.31 0 0 1 9 12c0-.782.043-1.536.123-2.25h5.754c.08.714.123 1.468.123 2.25Zm-.354-3.75c-.206-1.035-.493-1.951-.832-2.706C13.042 3.83 12.284 3.5 12 3.5c-.285 0-1.042.329-1.814 2.044-.34.755-.626 1.67-.832 2.706h5.292Zm-5.292 7.5c.206 1.035.493 1.951.832 2.706.772 1.715 1.53 2.044 1.814 2.044.285 0 1.042-.329 1.814-2.044.34-.755.626-1.67.832-2.706H9.354Z" fill="#2A179C"/></svg>