<svg width="24" height="24" fill="none" xmlns="http://www.w3.org/2000/svg"><path d="M20.498 12a8.5 8.5 0 0 1-16.944.979c-.046-.404-.376-.729-.782-.729-.423 0-.765.35-.722.77.51 5.043 4.77 8.98 9.948 8.98 5.523 0 10-4.477 10-10s-4.477-10-10-10a9.995 9.995 0 0 0-8.6 4.894V4.25a.75.75 0 0 0-1.5 0V8.5a.75.75 0 0 0 .75.75h4.25a.75.75 0 1 0 0-1.5H4.636A8.5 8.5 0 0 1 20.499 12Z" fill="#2A179C"/><path d="M11.998 7.5a.75.75 0 0 0-.75.75V12a.75.75 0 0 0 .375.65l3.681 2.124a.75.75 0 0 0 .75-1.298l-3.306-1.909V8.25a.75.75 0 0 0-.75-.75Z" fill="#2A179C"/></svg>