<svg width="602" height="672" fill="none" xmlns="http://www.w3.org/2000/svg"><path fill-rule="evenodd" clip-rule="evenodd" d="M541.614 122.543 361.076 16.267c-36.816-21.69-82.835-21.69-120.359 0L60.179 122.543C22.656 144.955 0 185.442 0 229.543v213.276c0 43.378 22.656 84.587 60.18 106.999l180.537 106.277C257.709 666.216 278.949 672 300.897 672c21.947 0 43.187-5.784 60.179-15.905l180.538-106.277c36.815-21.689 60.179-62.898 60.179-106.999V229.543c0-44.101-22.656-84.588-60.179-107ZM300.897 61.091c9.911 0 21.239 2.892 30.443 7.953L511.878 175.32c18.408 10.845 30.444 31.811 30.444 54.223v213.276c0 22.412-12.036 43.378-30.444 53.499l-180.538 107c-19.116 11.567-42.479 11.567-60.887 0l-180.538-107c-18.408-10.844-30.444-31.81-30.444-54.222V229.543c0-22.412 12.036-43.378 30.444-54.223L270.453 69.044c9.204-5.061 20.532-7.953 30.444-7.953Zm-31.858 269.745c0-5.784 2.124-10.845 6.372-15.183 2.832-2.892 6.372-5.783 11.328-8.675l90.623-44.101c14.16-7.23 31.151-.723 37.523 13.736 2.832 7.23 3.54 15.182.708 22.412-2.832 7.23-7.788 13.014-14.867 16.628l-75.048 36.149v141.702c0 15.905-12.743 28.919-28.319 28.919-15.576 0-28.32-13.014-28.32-28.919V330.836Z" fill="#FFE9F1"/></svg>