<svg width="602" height="672" viewBox="0 0 602 672" fill="none" xmlns="http://www.w3.org/2000/svg">
<path fill-rule="evenodd" clip-rule="evenodd" d="M541.614 122.543L361.076 16.2668C324.26 -5.42227 278.241 -5.42227 240.717 16.2668L60.1793 122.543C22.6557 144.955 0 185.442 0 229.543V442.819C0 486.197 22.6557 527.406 60.1793 549.818L240.717 656.095C257.709 666.216 278.949 672 300.897 672C322.844 672 344.084 666.216 361.076 656.095L541.614 549.818C578.429 528.129 601.793 486.92 601.793 442.819V229.543C601.793 185.442 579.137 144.955 541.614 122.543ZM300.897 61.0909C310.808 61.0909 322.136 63.9828 331.34 69.0436L511.878 175.32C530.286 186.165 542.322 207.131 542.322 229.543V442.819C542.322 465.231 530.286 486.197 511.878 496.318L331.34 603.318C312.224 614.885 288.861 614.885 270.453 603.318L89.915 496.318C71.5072 485.474 59.4713 464.508 59.4713 442.096V229.543C59.4713 207.131 71.5072 186.165 89.915 175.32L270.453 69.0436C279.657 63.9828 290.985 61.0909 300.897 61.0909ZM269.039 330.836C269.039 325.052 271.163 319.991 275.411 315.653C278.243 312.761 281.783 309.87 286.739 306.978L377.362 262.877C391.522 255.647 408.513 262.154 414.885 276.613C417.717 283.843 418.425 291.795 415.593 299.025C412.761 306.255 407.805 312.039 400.726 315.653L325.678 351.802V493.504C325.678 509.409 312.935 522.423 297.359 522.423C281.783 522.423 269.039 509.409 269.039 493.504V334.451V330.836Z" fill="#FFE9F1"/>
</svg>
