<svg width="24" height="24" fill="none" xmlns="http://www.w3.org/2000/svg"><path fill-rule="evenodd" clip-rule="evenodd" d="M14.5 7.5a2.5 2.5 0 1 1-5 0 2.5 2.5 0 0 1 5 0Zm-1.5 0a1 1 0 1 1-2 0 1 1 0 0 1 2 0Z" fill="#2A179C"/><path fill-rule="evenodd" clip-rule="evenodd" d="M4 2a2 2 0 0 0-2 2v7a2 2 0 0 0 2 2h16a2 2 0 0 0 2-2V4a2 2 0 0 0-2-2H4Zm16.5 2a.5.5 0 0 0-.5-.5H4a.5.5 0 0 0-.5.5v7a.5.5 0 0 0 .5.5h16a.5.5 0 0 0 .5-.5V4Z" fill="#2A179C"/><path d="M22 21a.75.75 0 0 1-.75.75H2.75a.75.75 0 0 1 0-1.5h18.5A.75.75 0 0 1 22 21Zm0-4.5a.75.75 0 0 1-.75.75H2.75a.75.75 0 0 1 0-1.5h18.5a.75.75 0 0 1 .75.75Z" fill="#2A179C"/></svg>