<svg width="24" height="24" viewBox="0 0 24 24" fill="none" xmlns="http://www.w3.org/2000/svg">
<path fill-rule="evenodd" clip-rule="evenodd" d="M11 7.25C11 9.32107 9.32107 11 7.25 11C5.17893 11 3.5 9.32107 3.5 7.25C3.5 5.17893 5.17893 3.5 7.25 3.5C9.32107 3.5 11 5.17893 11 7.25ZM9.5 7.25C9.5 8.49264 8.49264 9.5 7.25 9.5C6.00736 9.5 5 8.49264 5 7.25C5 6.00736 6.00736 5 7.25 5C8.49264 5 9.5 6.00736 9.5 7.25Z" fill="#2A179C"/>
<path fill-rule="evenodd" clip-rule="evenodd" d="M16.75 20.5C18.8211 20.5 20.5 18.8211 20.5 16.75C20.5 14.6789 18.8211 13 16.75 13C14.6789 13 13 14.6789 13 16.75C13 18.8211 14.6789 20.5 16.75 20.5ZM16.75 19C17.9926 19 19 17.9926 19 16.75C19 15.5074 17.9926 14.5 16.75 14.5C15.5074 14.5 14.5 15.5074 14.5 16.75C14.5 17.9926 15.5074 19 16.75 19Z" fill="#2A179C"/>
<path d="M20 4C20.2929 4.29289 20.2929 4.76777 20 5.06066L5.06067 20C4.76778 20.2929 4.2929 20.2929 4.00001 20C3.70711 19.7071 3.70711 19.2322 4.00001 18.9393L18.9393 4C19.2322 3.70711 19.7071 3.70711 20 4Z" fill="#2A179C"/>
</svg>
