<svg width="24" height="24" fill="none" xmlns="http://www.w3.org/2000/svg"><path d="M16.5 9.56a.75.75 0 1 0-1.06-1.06L11 12.94 9.06 11A.75.75 0 0 0 8 12.06l2.47 2.47a.75.75 0 0 0 1.06 0l4.97-4.97Z" fill="#2A179C"/><path fill-rule="evenodd" clip-rule="evenodd" d="M4.188 4.472A2 2 0 0 0 3 6.3V13c0 5.877 6.343 8.934 8.379 9.764.4.163.841.163 1.242 0C14.657 21.934 21 18.877 21 13V6.3a2 2 0 0 0-1.188-1.828l-7-3.111a2 2 0 0 0-1.624 0l-7 3.111Zm12.4 14.171C18.249 17.2 19.5 15.343 19.5 13V6.3a.5.5 0 0 0-.297-.457l-7-3.111a.5.5 0 0 0-.406 0l-7 3.11A.5.5 0 0 0 4.5 6.3V13c0 2.343 1.253 4.199 2.911 5.643 1.662 1.448 3.586 2.345 4.534 2.732a.135.135 0 0 0 .11 0c.948-.387 2.872-1.284 4.534-2.732Z" fill="#2A179C"/></svg>