<svg width="24" height="24" fill="none" xmlns="http://www.w3.org/2000/svg"><path fill-rule="evenodd" clip-rule="evenodd" d="M1.362 13.233C.499 12.005 0 10.555 0 9c0-4.418 4.03-8 9-8s9 3.582 9 8c0 4.39-3.978 7.954-8.905 8a10.115 10.115 0 0 1-2.005-.18c-.52-.1-1.023-.24-1.505-.416l-3.854 1.102a1 1 0 0 1-1.237-1.237l.868-3.036Zm1.227-.862c.26.37.34.839.215 1.274l-.62 2.171 2.99-.854a1.5 1.5 0 0 1 .925.033A8.457 8.457 0 0 0 9 15.5c4.313 0 7.5-3.071 7.5-6.5S13.313 2.5 9 2.5C4.687 2.5 1.5 5.571 1.5 9c0 1.225.391 2.378 1.09 3.37Z" fill="#fff"/><path d="M18.89 5.784c.246.621.422 1.276.52 1.957C21.314 8.95 22.5 10.909 22.5 13c0 1.225-.391 2.378-1.089 3.37a1.5 1.5 0 0 0-.215 1.275l.62 2.171-2.99-.854a1.5 1.5 0 0 0-.925.033A8.457 8.457 0 0 1 15 19.5c-1.604 0-3.052-.425-4.239-1.135a11.542 11.542 0 0 1-2.31.122C10.09 20.034 12.419 21 15 21a9.96 9.96 0 0 0 3.415-.596l3.854 1.102a1 1 0 0 0 1.237-1.237l-.868-3.036C23.501 16.006 24 14.555 24 13c0-3.18-2.087-5.926-5.11-7.216Z" fill="#fff"/></svg>