<svg width="205" height="55" fill="none" xmlns="http://www.w3.org/2000/svg"><g clip-path="url(#a)"><path d="M72 20.878V.562h4.122l6.046 12.178L88.213.562h4.122v20.316h-3.572v-14.2l-5.496 11.057h-2.309L75.463 6.679v14.255H72v-.056Zm26.05-1.74c-1.484-1.46-2.198-3.368-2.198-5.669 0-2.3.66-4.04 2.198-5.668 1.484-1.46 3.298-2.189 5.331-2.189 2.034 0 3.957.73 5.331 2.19 1.484 1.458 2.199 3.366 2.199 5.667 0 2.302-.66 4.041-2.199 5.669-1.484 1.459-3.297 2.189-5.331 2.189-2.033 0-3.792-.73-5.331-2.19Zm2.638-8.53c-.824.729-1.21 1.739-1.21 3.03 0 1.29.386 2.3 1.21 3.03s1.759 1.179 2.858 1.179c1.099 0 2.033-.449 2.858-1.179.824-.73 1.099-1.74 1.099-3.03 0-1.291-.385-2.301-1.099-3.03-.825-.73-1.759-1.18-2.858-1.18-1.209-.168-2.034.281-2.858 1.18Zm14.124 10.27V6.342h3.958l4.506 7.857 4.507-7.857h3.957v14.536h-3.572v-9.26l-3.957 7.24h-1.924l-3.957-7.24v9.316h-3.518v-.056Zm24.674-5.668c.11.898.55 1.459 1.21 2.02.659.45 1.374.73 2.308.73.934 0 1.374-.169 1.923-.45.55-.28.935-.729 1.374-1.29l3.298 1.29c-.55 1.18-1.484 2.19-2.583 2.75-1.099.73-2.473 1.01-3.847 1.01-2.034 0-3.847-.729-5.221-2.188s-2.034-3.367-2.034-5.668.66-4.041 2.034-5.669c1.374-1.571 3.022-2.188 5.056-2.188 2.033 0 3.847.73 5.221 2.188 1.374 1.46 2.034 3.368 2.034 5.5 0 2.133 0 1.01-.11 1.572h-10.718v.393h.055Zm7.035-3.2c-.11-.897-.549-1.458-1.209-2.02a4.177 4.177 0 0 0-2.308-.73c-.825 0-1.649.281-2.308.73-.66.45-1.1 1.179-1.21 2.02h7.035Zm7.42 8.868V6.342h3.573v5.5h6.43v-5.5h3.572v14.536h-3.572v-5.5h-6.43v5.5h-3.573Zm29.072-14.536v3.48h-4.232v11.056h-3.572v-11h-4.287v-3.48h12.091v-.056ZM71.008 47.256a5.21 5.21 0 0 0 1.1-3.2V32.553h12.86l-.11 19.25h-3.463v-15.77h-5.77v8.306c0 1.795-.66 3.31-2.034 4.714-1.374 1.234-3.133 1.964-5.331 1.964h-.825l-.384-2.47h.934c1.264 0 2.363-.448 3.023-1.29ZM87.33 48.49V55h-3.572v-3.198H70.623V55h-3.572v-6.51h20.28Zm5.165 1.796c-1.484-1.403-2.198-3.2-2.198-5.388 0-2.189.66-3.873 2.198-5.388 1.484-1.403 3.298-2.076 5.331-2.076 2.034 0 3.957.673 5.331 2.076 1.484 1.403 2.199 3.2 2.199 5.388 0 2.189-.66 3.872-2.199 5.388-1.483 1.403-3.297 2.076-5.33 2.076-2.034 0-3.958-.673-5.332-2.076Zm2.474-8.306c-.825.673-1.21 1.683-1.21 2.918s.385 2.245 1.21 2.918c.824.674 1.758 1.123 2.857 1.123 1.1 0 2.034-.393 2.858-1.123.825-.673 1.099-1.683 1.099-2.918s-.384-2.245-1.099-2.919c-.659-.673-1.758-1.122-2.858-1.122-1.099 0-2.033.449-2.857 1.123Zm18.663.127c-.66.674-1.099 1.684-1.099 2.919 0 1.234.384 2.245 1.099 2.918.659.674 1.649 1.123 2.748 1.123 1.099 0 1.484-.113 2.198-.562.66-.393 1.1-.954 1.484-1.683l3.298 1.515c-.66 1.235-1.484 2.245-2.748 3.03-1.209.674-2.583 1.123-4.122 1.123-1.539 0-3.847-.673-5.221-2.076-1.484-1.404-2.199-3.2-2.199-5.388 0-2.189.66-3.873 2.199-5.388 1.484-1.403 3.132-2.076 5.221-2.076 2.088 0 2.858.392 4.122 1.122 1.209.673 2.198 1.796 2.748 3.03l-3.298 1.516c-.275-.674-.824-1.403-1.484-1.796-.659-.393-1.374-.673-2.198-.673-1.099.224-2.089.673-2.748 1.346Zm24.318-4v3.312h-4.232v10.55h-3.572V41.42h-4.232v-3.312h12.036Zm11.375 8.026-3.022.393c-1.209.112-1.759.561-1.759 1.234 0 .674.11.674.55.955.274.28.824.28 1.374.28.824 0 1.648-.28 2.198-.673s.824-1.123.824-1.796h.935c0 1.683-.385 2.918-1.374 4.04-.935 1.123-2.199 1.684-3.573 1.684s-2.308-.392-3.023-1.122c-.824-.842-1.209-1.796-1.209-2.919 0-1.122.385-2.244 1.209-2.918a6.402 6.402 0 0 1 3.298-1.403l3.847-.393v-.112c0-.561-.275-.954-.659-1.403-.385-.393-1.099-.561-1.759-.561-.659 0-1.099.112-1.649.56-.549.394-.824.674-.934 1.236l-3.408-1.123a5.086 5.086 0 0 1 2.199-2.75c1.099-.673 2.308-1.122 3.572-1.122 1.264 0 3.023.561 4.232 1.515 1.209.954 1.759 2.245 1.759 3.592v8.98h-3.573v-6.174h-.055Zm16.653 5.837h-8.904V38.107h8.629c1.374 0 2.473.393 3.407 1.123a3.249 3.249 0 0 1 1.374 2.638c0 .954-.109 1.122-.549 1.683-.275.561-.825.842-1.374 1.123.659.28 1.099.842 1.484 1.403.384.561.549 1.235.549 2.076 0 .842-.384 1.965-1.374 2.75-.604.618-1.868 1.067-3.242 1.067Zm-.55-10.832h-4.671v2.357h4.946c.385 0 .659-.112.934-.28.275-.281.385-.393.385-.674 0-.28-.11-.673-.385-.954-.384-.28-.769-.449-1.209-.449Zm.275 5.107h-4.946v2.47h5.056c.385 0 .824-.113 1.099-.393s.385-.562.385-.842c0-.28-.11-.674-.385-.842-.385-.224-.769-.393-1.209-.393Zm8.797 5.725V38.107h3.572v5.108h.66l4.397-5.108h4.506l-5.88 6.904 5.88 6.902h-4.506l-4.397-4.994h-.66v4.995H174.5v.056Zm30.502 0h-3.573v-9.428l-6.045 9.26h-4.122V37.94h3.572v8.979l6.046-8.98h4.122V51.97Z" fill="#fff"/><path fill-rule="evenodd" clip-rule="evenodd" d="M42.044 9.54 28.03 1.29c-2.858-1.684-6.43-1.684-9.344 0L4.672 9.54C1.759 11.28 0 14.423 0 17.846v16.556c0 3.368 1.759 6.567 4.672 8.306l14.014 8.25c1.32.786 2.968 1.235 4.672 1.235 1.704 0 3.352-.449 4.671-1.234l14.015-8.25c2.858-1.684 4.672-4.883 4.672-8.307V17.846c0-3.423-1.759-6.566-4.672-8.306ZM23.358 4.77c.77 0 1.649.224 2.363.617l14.015 8.25c1.429.842 2.363 2.47 2.363 4.21v16.555c0 1.74-.934 3.368-2.363 4.153L25.72 46.861c-1.484.899-3.297.899-4.726 0L6.98 38.556c-1.43-.841-2.363-2.469-2.363-4.209v-16.5c0-1.74.934-3.367 2.363-4.209l14.015-8.25a5.12 5.12 0 0 1 2.363-.617Zm-2.475 20.94c0-.45.165-.842.495-1.18.22-.224.494-.448.879-.673l7.035-3.423c1.099-.561 2.418-.056 2.913 1.066.22.561.274 1.179.055 1.74a2.39 2.39 0 0 1-1.155 1.29l-5.825 2.807v11c0 1.235-.99 2.245-2.199 2.245-1.209 0-2.198-1.01-2.198-2.245V25.71Z" fill="#F52671"/></g><defs><clipPath id="a"><path fill="#fff" d="M0 0h205v55H0z"/></clipPath></defs></svg>