<svg width="142" height="39" fill="none" xmlns="http://www.w3.org/2000/svg"><g clip-path="url(#a)"><path d="M49.871 14.924V.888h2.855l4.188 8.414L61.102.888h2.855v14.036h-2.475v-9.81l-3.807 7.639h-1.598L52.27 5.114v9.85h-2.4v-.04Zm18.046-1.202c-1.028-1.008-1.523-2.326-1.523-3.916 0-1.59.457-2.792 1.523-3.916 1.028-1.008 2.284-1.513 3.693-1.513 1.409 0 2.741.505 3.693 1.513 1.028 1.008 1.523 2.326 1.523 3.916 0 1.59-.457 2.792-1.523 3.916-1.028 1.008-2.284 1.513-3.693 1.513-1.409 0-2.627-.505-3.693-1.513Zm1.828-5.894c-.571.505-.838 1.202-.838 2.094 0 .892.267 1.59.838 2.094.57.504 1.218.815 1.98.815.76 0 1.408-.31 1.979-.815.571-.504.761-1.202.761-2.094 0-.892-.266-1.59-.761-2.094-.571-.504-1.218-.814-1.98-.814-.837-.116-1.408.194-1.98.814Zm9.782 7.096V4.881h2.741l3.122 5.429 3.122-5.429h2.74v10.043h-2.474V8.526l-2.74 5.002h-1.333l-2.741-5.002v6.437h-2.437v-.039Zm17.096-3.916c.076.62.38 1.008.837 1.396.457.31.952.504 1.6.504.647 0 .951-.116 1.332-.31.381-.194.647-.504.952-.892l2.284.892c-.381.814-1.028 1.512-1.789 1.9-.762.504-1.714.698-2.665.698-1.409 0-2.665-.504-3.617-1.512-.952-1.009-1.409-2.327-1.409-3.917 0-1.59.457-2.792 1.409-3.916.952-1.086 2.094-1.512 3.502-1.512 1.409 0 2.665.504 3.617 1.512s1.409 2.326 1.409 3.8c0 1.473 0 .698-.077 1.086h-7.423v.271h.038Zm4.873-2.21c-.076-.62-.381-1.008-.838-1.396a2.896 2.896 0 0 0-1.599-.504 2.9 2.9 0 0 0-1.599.504c-.456.31-.76.814-.837 1.396h4.873Zm5.137 6.126V4.881h2.474v3.8h4.454v-3.8h2.475v10.043h-2.475v-3.8h-4.454v3.8h-2.474Zm20.141-10.043v2.404h-2.932v7.64h-2.474v-7.6h-2.97V4.92h8.376v-.039ZM49.186 33.149a3.594 3.594 0 0 0 .762-2.21v-7.95h8.908l-.076 13.3h-2.398V25.395h-3.998v5.739c0 1.24-.457 2.287-1.408 3.257-.952.853-2.17 1.357-3.693 1.357h-.571l-.267-1.706h.648c.875 0 1.636-.31 2.093-.892Zm11.307.853V38.5h-2.474v-2.21h-9.1v2.21h-2.474v-4.498h14.048Zm3.577 1.241c-1.028-.97-1.523-2.21-1.523-3.723 0-1.512.457-2.675 1.523-3.722 1.028-.97 2.284-1.435 3.692-1.435 1.409 0 2.741.466 3.693 1.435 1.028.97 1.523 2.21 1.523 3.722 0 1.513-.457 2.676-1.523 3.723-1.028.97-2.284 1.435-3.693 1.435-1.408 0-2.74-.466-3.692-1.435Zm1.713-5.739c-.571.465-.838 1.163-.838 2.016 0 .854.267 1.551.838 2.017.57.465 1.218.775 1.98.775.76 0 1.408-.271 1.979-.775.571-.466.761-1.163.761-2.017 0-.853-.266-1.55-.761-2.016-.457-.465-1.218-.775-1.98-.775-.761 0-1.408.31-1.98.775Zm12.927.088c-.456.465-.76 1.163-.76 2.016s.266 1.551.76 2.017a2.679 2.679 0 0 0 1.904.775c.761 0 1.028-.077 1.523-.388.457-.271.761-.659 1.028-1.163l2.284 1.047c-.457.853-1.028 1.551-1.904 2.094-.837.465-1.789.776-2.855.776s-2.665-.466-3.616-1.435c-1.028-.97-1.523-2.21-1.523-3.723 0-1.512.457-2.675 1.523-3.722 1.028-.97 2.17-1.435 3.616-1.435 1.447 0 1.98.272 2.855.776a4.569 4.569 0 0 1 1.904 2.094l-2.284 1.046c-.19-.465-.571-.969-1.028-1.24-.457-.272-.952-.466-1.523-.466-.761.155-1.447.466-1.903.931Zm16.846-2.763v2.287h-2.931v7.29H90.15v-7.29h-2.93V26.83h8.337Zm7.879 5.545-2.094.271c-.837.078-1.218.388-1.218.853 0 .465.076.465.381.66.19.193.571.193.951.193.572 0 1.143-.194 1.523-.465.381-.272.571-.776.571-1.241h.647c0 1.163-.266 2.016-.951 2.792a3.153 3.153 0 0 1-2.475 1.163c-.951 0-1.599-.271-2.094-.775-.57-.582-.837-1.241-.837-2.017 0-.775.266-1.55.837-2.016a4.438 4.438 0 0 1 2.285-.97l2.664-.27v-.078c0-.388-.19-.66-.456-.97-.267-.271-.762-.388-1.219-.388-.456 0-.761.078-1.142.388-.38.272-.571.465-.647.853l-2.36-.775a3.514 3.514 0 0 1 1.523-1.9c.761-.465 1.598-.776 2.474-.776.876 0 2.094.388 2.931 1.047.838.66 1.219 1.551 1.219 2.482v6.204h-2.475v-4.265h-.038Zm11.537 4.032h-6.167V26.83h5.977c.951 0 1.713.271 2.36.775.647.465.952 1.163.952 1.823 0 .659-.076.775-.381 1.163-.19.388-.571.582-.952.775.457.194.762.582 1.028.97.267.387.381.853.381 1.434 0 .582-.267 1.358-.952 1.9-.419.427-1.294.737-2.246.737Zm-.381-7.483h-3.236v1.628h3.427c.266 0 .456-.077.647-.194.19-.194.266-.271.266-.465a.984.984 0 0 0-.266-.66c-.267-.193-.533-.31-.838-.31Zm.191 3.528h-3.427v1.706h3.503c.266 0 .571-.077.761-.271.191-.194.267-.388.267-.582 0-.194-.076-.465-.267-.582-.266-.155-.533-.27-.837-.27Zm6.089 3.955V26.83h2.475v3.528h.456l3.046-3.528h3.122l-4.074 4.769 4.074 4.77h-3.122l-3.046-3.452h-.456v3.451h-2.475v.04Zm21.131 0h-2.475v-6.514l-4.187 6.398h-2.856v-9.578h2.475v6.204l4.188-6.204h2.855v9.694Z" fill="#2A179C"/><path fill-rule="evenodd" clip-rule="evenodd" d="m29.123 7.092-9.707-5.7c-1.98-1.164-4.455-1.164-6.472 0l-9.708 5.7C1.218 8.294 0 10.465 0 12.83v11.438c0 2.327 1.218 4.537 3.236 5.74l9.708 5.7c.913.542 2.055.852 3.236.852 1.18 0 2.322-.31 3.236-.853l9.707-5.7c1.98-1.163 3.236-3.373 3.236-5.739V12.831c0-2.366-1.218-4.537-3.236-5.74ZM16.18 3.796c.533 0 1.142.155 1.637.426l9.707 5.7c.99.582 1.637 1.707 1.637 2.909v11.438c0 1.202-.647 2.327-1.637 2.87l-9.707 5.738c-1.028.62-2.285.62-3.274 0L4.835 27.14c-.99-.582-1.637-1.706-1.637-2.909v-11.4c0-1.201.647-2.326 1.637-2.908l9.708-5.7a3.554 3.554 0 0 1 1.637-.426Zm-1.713 14.467c0-.31.114-.581.342-.814.153-.155.343-.31.61-.465l4.872-2.366c.762-.387 1.675-.038 2.018.737.152.388.19.814.038 1.202a1.653 1.653 0 0 1-.8.892l-4.035 1.939v7.6c0 .853-.685 1.55-1.522 1.55-.838 0-1.523-.697-1.523-1.55v-8.725Z" fill="#F52671"/></g><defs><clipPath id="a"><path fill="#fff" transform="translate(0 .5)" d="M0 0h142v38H0z"/></clipPath></defs></svg>